<svg version="1.1" id="Layer_1" xmlns="http://www.w3.org/2000/svg" xmlns:xlink="http://www.w3.org/1999/xlink" x="0px" y="0px"
	 width="100%" viewBox="0 0 1024 1024" enable-background="new 0 0 1024 1024" xml:space="preserve">
<path fill="#000000" opacity="1.000000" stroke="none" 
	d="
M542.000000,1025.000000 
	C361.333344,1025.000000 181.166672,1025.000000 1.000000,1025.000000 
	C1.000000,683.666687 1.000000,342.333344 1.000000,1.000000 
	C342.333344,1.000000 683.666687,1.000000 1025.000000,1.000000 
	C1025.000000,342.333344 1025.000000,683.666687 1025.000000,1025.000000 
	C864.166687,1025.000000 703.333313,1025.000000 542.000000,1025.000000 
M356.500000,961.000244 
	C472.586090,961.000244 588.672180,961.000244 705.230225,961.000244 
	C705.230225,949.965576 705.230225,939.561707 705.230225,928.705444 
	C737.432495,928.705444 769.163025,928.705444 801.183228,928.705444 
	C801.183228,917.954346 801.183228,907.674500 801.183228,896.928833 
	C822.539795,896.928833 843.605957,896.928833 865.137146,896.928833 
	C865.137146,886.061401 865.137146,875.657715 865.137146,864.797668 
	C876.006836,864.797668 886.410889,864.797668 897.268799,864.797668 
	C897.268799,853.926086 897.268799,843.522156 897.268799,832.842773 
	C908.020508,832.842773 918.300415,832.842773 929.046387,832.842773 
	C929.046387,811.486572 929.046387,790.420532 929.046387,768.888916 
	C939.912659,768.888916 950.316467,768.888916 960.676636,768.888916 
	C960.676636,726.020325 960.676636,683.625793 960.676636,640.759888 
	C949.955505,640.759888 939.553162,640.759888 929.390381,640.759888 
	C929.390381,619.223083 929.390381,598.161072 929.390381,576.808228 
	C940.058838,576.808228 950.337891,576.808228 961.083008,576.808228 
	C961.083008,555.449402 961.083008,534.383301 961.083008,512.852173 
	C971.950806,512.852173 982.354614,512.852173 992.659729,512.852173 
	C992.659729,437.985016 992.659729,363.591492 992.659729,288.726044 
	C981.920715,288.726044 971.516785,288.726044 960.838013,288.726044 
	C960.838013,267.308624 960.838013,246.363174 960.838013,224.948807 
	C950.149597,224.948807 939.747070,224.948807 928.883606,224.948807 
	C928.883606,214.081512 928.883606,203.678055 928.883606,192.817169 
	C918.014648,192.817169 907.611145,192.817169 896.751953,192.817169 
	C896.751953,181.946106 896.751953,171.542252 896.751953,160.862289 
	C886.000671,160.862289 875.720703,160.862289 864.973877,160.862289 
	C864.973877,150.173950 864.973877,139.771484 864.973877,128.907898 
	C843.440247,128.907898 822.374084,128.907898 800.843140,128.907898 
	C800.843140,118.039917 800.843140,107.636063 800.843140,96.778137 
	C757.975342,96.778137 715.578796,96.778137 672.714294,96.778137 
	C672.714294,85.907486 672.714294,75.503548 672.714294,65.230492 
	C555.300049,65.230492 438.359070,65.230492 320.945374,65.230492 
	C320.945374,75.853943 320.945374,86.256790 320.945374,97.118896 
	C288.744751,97.118896 257.014160,97.118896 224.815598,97.118896 
	C224.815598,107.987175 224.815598,118.391243 224.815598,129.249146 
	C203.279587,129.249146 182.213455,129.249146 160.861664,129.249146 
	C160.861664,140.000000 160.861664,150.279922 160.861664,161.026794 
	C150.173248,161.026794 139.770935,161.026794 128.906784,161.026794 
	C128.906784,171.893372 128.906784,182.296768 128.906784,193.158432 
	C118.038658,193.158432 107.635284,193.158432 96.775139,193.158432 
	C96.775139,204.028900 96.775139,214.432724 96.775139,225.290070 
	C85.902969,225.290070 75.499031,225.290070 64.820732,225.290070 
	C64.820732,246.707611 64.820732,267.653076 64.820732,289.067261 
	C54.131710,289.067261 43.728806,289.067261 33.299950,289.067261 
	C33.299950,363.934204 33.299950,438.327606 33.299950,513.193481 
	C43.996479,513.193481 54.400570,513.193481 65.258224,513.193481 
	C65.258224,534.729614 65.258224,555.795715 65.258224,577.147461 
	C76.009270,577.147461 86.289154,577.147461 96.745255,577.147461 
	C96.745255,598.505737 96.745255,619.567139 96.745255,641.101257 
	C86.097534,641.101257 75.693939,641.101257 65.318352,641.101257 
	C65.318352,683.969788 65.318352,726.364258 65.318352,769.230347 
	C76.034348,769.230347 86.437485,769.230347 97.295036,769.230347 
	C97.295036,790.766968 97.295036,811.832886 97.295036,833.184326 
	C108.046700,833.184326 118.326538,833.184326 129.072723,833.184326 
	C129.072723,843.873230 129.072723,854.277100 129.072723,865.139160 
	C139.940689,865.139160 150.344406,865.139160 161.204407,865.139160 
	C161.204407,876.008850 161.204407,886.412781 161.204407,897.270386 
	C182.740738,897.270386 203.806671,897.270386 225.158386,897.270386 
	C225.158386,908.021729 225.158386,918.301636 225.158386,929.047119 
	C257.181549,929.047119 288.912445,929.047119 321.111389,929.047119 
	C321.111389,939.913330 321.111389,950.316711 321.111389,961.000244 
	C332.888184,961.000244 344.194092,961.000244 356.500000,961.000244 
z"/>
<path fill="#FFFFFF" opacity="1.000000" stroke="none" 
	d="
M356.000000,961.000244 
	C344.194092,961.000244 332.888184,961.000244 321.111389,961.000244 
	C321.111389,950.316711 321.111389,939.913330 321.111389,929.047119 
	C288.912445,929.047119 257.181549,929.047119 225.158386,929.047119 
	C225.158386,918.301636 225.158386,908.021729 225.158386,897.270386 
	C203.806671,897.270386 182.740738,897.270386 161.204407,897.270386 
	C161.204407,886.412781 161.204407,876.008850 161.204407,865.139160 
	C150.344406,865.139160 139.940689,865.139160 129.072723,865.139160 
	C129.072723,854.277100 129.072723,843.873230 129.072723,833.184326 
	C118.326538,833.184326 108.046700,833.184326 97.295036,833.184326 
	C97.295036,811.832886 97.295036,790.766968 97.295036,769.230347 
	C86.437485,769.230347 76.034348,769.230347 65.318352,769.230347 
	C65.318352,726.364258 65.318352,683.969788 65.318352,641.101257 
	C75.693939,641.101257 86.097534,641.101257 96.745255,641.101257 
	C96.745255,619.567139 96.745255,598.505737 96.745255,577.147461 
	C86.289154,577.147461 76.009270,577.147461 65.258224,577.147461 
	C65.258224,555.795715 65.258224,534.729614 65.258224,513.193481 
	C54.400570,513.193481 43.996479,513.193481 33.299950,513.193481 
	C33.299950,438.327606 33.299950,363.934204 33.299950,289.067261 
	C43.728806,289.067261 54.131710,289.067261 64.820732,289.067261 
	C64.820732,267.653076 64.820732,246.707611 64.820732,225.290070 
	C75.499031,225.290070 85.902969,225.290070 96.775139,225.290070 
	C96.775139,214.432724 96.775139,204.028900 96.775139,193.158432 
	C107.635284,193.158432 118.038658,193.158432 128.906784,193.158432 
	C128.906784,182.296768 128.906784,171.893372 128.906784,161.026794 
	C139.770935,161.026794 150.173248,161.026794 160.861664,161.026794 
	C160.861664,150.279922 160.861664,140.000000 160.861664,129.249146 
	C182.213455,129.249146 203.279587,129.249146 224.815598,129.249146 
	C224.815598,118.391243 224.815598,107.987175 224.815598,97.118896 
	C257.014160,97.118896 288.744751,97.118896 320.945374,97.118896 
	C320.945374,86.256790 320.945374,75.853943 320.945374,65.230492 
	C438.359070,65.230492 555.300049,65.230492 672.714294,65.230492 
	C672.714294,75.503548 672.714294,85.907486 672.714294,96.778137 
	C715.578796,96.778137 757.975342,96.778137 800.843140,96.778137 
	C800.843140,107.636063 800.843140,118.039917 800.843140,128.907898 
	C822.374084,128.907898 843.440247,128.907898 864.973877,128.907898 
	C864.973877,139.771484 864.973877,150.173950 864.973877,160.862289 
	C875.720703,160.862289 886.000671,160.862289 896.751953,160.862289 
	C896.751953,171.542252 896.751953,181.946106 896.751953,192.817169 
	C907.611145,192.817169 918.014648,192.817169 928.883606,192.817169 
	C928.883606,203.678055 928.883606,214.081512 928.883606,224.948807 
	C939.747070,224.948807 950.149597,224.948807 960.838013,224.948807 
	C960.838013,246.363174 960.838013,267.308624 960.838013,288.726044 
	C971.516785,288.726044 981.920715,288.726044 992.659729,288.726044 
	C992.659729,363.591492 992.659729,437.985016 992.659729,512.852173 
	C982.354614,512.852173 971.950806,512.852173 961.083008,512.852173 
	C961.083008,534.383301 961.083008,555.449402 961.083008,576.808228 
	C950.337891,576.808228 940.058838,576.808228 929.390381,576.808228 
	C929.390381,598.161072 929.390381,619.223083 929.390381,640.759888 
	C939.553162,640.759888 949.955505,640.759888 960.676636,640.759888 
	C960.676636,683.625793 960.676636,726.020325 960.676636,768.888916 
	C950.316467,768.888916 939.912659,768.888916 929.046387,768.888916 
	C929.046387,790.420532 929.046387,811.486572 929.046387,832.842773 
	C918.300415,832.842773 908.020508,832.842773 897.268799,832.842773 
	C897.268799,843.522156 897.268799,853.926086 897.268799,864.797668 
	C886.410889,864.797668 876.006836,864.797668 865.137146,864.797668 
	C865.137146,875.657715 865.137146,886.061401 865.137146,896.928833 
	C843.605957,896.928833 822.539795,896.928833 801.183228,896.928833 
	C801.183228,907.674500 801.183228,917.954346 801.183228,928.705444 
	C769.163025,928.705444 737.432495,928.705444 705.230225,928.705444 
	C705.230225,939.561707 705.230225,949.965576 705.230225,961.000244 
	C588.672180,961.000244 472.586090,961.000244 356.000000,961.000244 
M225.004135,769.871033 
	C225.004135,780.140076 225.004135,790.409180 225.004135,801.137329 
	C235.937332,801.137329 246.337448,801.137329 257.189941,801.137329 
	C257.189941,811.998779 257.189941,822.398987 257.189941,832.932190 
	C278.796753,832.932190 299.935394,832.932190 321.004639,833.875793 
	C321.004639,844.145020 321.004639,854.414185 321.004639,865.138672 
	C342.606750,865.138672 363.667145,865.138672 385.188568,865.138672 
	C385.188568,875.997070 385.188568,886.397888 385.188568,896.680542 
	C481.360443,896.680542 577.062500,896.680542 673.077942,896.680542 
	C673.077942,885.885010 673.077942,875.409302 673.005249,865.001587 
	C673.005249,865.001587 672.937195,865.074219 673.880371,865.008606 
	C694.808411,865.008606 715.736511,865.008606 737.127563,865.008606 
	C737.127563,854.072632 737.127563,843.673035 737.127563,832.821899 
	C747.987122,832.821899 758.386841,832.821899 768.925720,832.821899 
	C768.925720,821.881226 768.925720,811.406860 769.870911,800.995911 
	C780.143372,800.995911 790.415833,800.995911 801.152100,800.995911 
	C801.152100,790.049133 801.152100,779.645264 801.152100,768.785156 
	C812.022827,768.785156 822.426758,768.785156 833.284790,768.785156 
	C833.284790,757.912720 833.284790,747.508728 833.284790,736.829590 
	C854.702942,736.829590 875.648499,736.829590 896.735596,736.829590 
	C896.735596,726.135925 896.735596,715.740234 896.735596,704.872925 
	C886.074890,704.872925 875.671265,704.872925 864.810181,704.872925 
	C864.810181,694.002991 864.810181,683.598877 864.810181,672.740173 
	C853.938599,672.740173 843.536255,672.740173 832.854248,672.740173 
	C832.854248,661.988098 832.854248,651.708191 832.854248,641.252258 
	C822.160889,641.252258 811.765320,641.252258 800.897583,641.252258 
	C800.897583,662.567139 800.897583,683.633301 800.897583,705.164429 
	C779.362549,705.164429 758.296387,705.164429 737.067566,705.164429 
	C737.067566,716.115662 737.067566,726.594910 736.124084,737.004700 
	C614.880005,737.002502 493.635925,736.997314 372.391846,737.001648 
	C355.238647,737.002197 338.085480,737.048706 320.995880,736.128906 
	C320.995880,725.887512 320.995880,715.646118 320.995880,705.067810 
	C299.331879,705.067810 278.128906,705.067810 256.995361,704.124207 
	C256.995361,693.854736 256.995361,683.585205 256.995361,672.855469 
	C246.055710,672.855469 235.654572,672.855469 224.800201,672.855469 
	C224.800201,661.991516 224.800201,651.590088 224.800201,641.362183 
	C213.931091,641.362183 203.535110,641.362183 192.684143,641.362183 
	C192.684143,662.783630 192.684143,683.843140 192.684143,705.183105 
	C171.278168,705.183105 150.338272,705.183105 129.264496,705.183105 
	C129.264496,715.869263 129.264496,726.262573 129.264496,737.119568 
	C150.587006,737.119568 171.648193,737.119568 193.170837,737.119568 
	C193.170837,747.978638 193.170837,758.379395 193.170837,768.925903 
	C204.115601,768.925903 214.591583,768.925903 225.004135,769.871033 
M705.004761,609.881104 
	C705.004761,620.149353 705.004761,630.417664 705.004761,640.702332 
	C726.610779,640.702332 747.666626,640.702332 768.675171,640.702332 
	C768.675171,630.005798 768.675171,619.611938 768.675171,609.079895 
	C747.211304,609.079895 726.073547,609.079895 704.993958,608.134216 
	C704.993958,597.861694 704.993958,587.589233 704.993958,576.856079 
	C747.946655,576.856079 790.342102,576.856079 833.205933,576.856079 
	C833.205933,565.989319 833.205933,555.585571 833.205933,544.729248 
	C854.741333,544.729248 875.807007,544.729248 897.157593,544.729248 
	C897.157593,533.979187 897.157593,523.698975 897.157593,512.953369 
	C907.845337,512.953369 918.248474,512.953369 928.709106,512.953369 
	C928.709106,480.752563 928.709106,449.025391 928.709106,416.826691 
	C918.022827,416.826691 907.619019,416.826691 896.760864,416.826691 
	C896.760864,405.956451 896.760864,395.552856 896.760864,384.696991 
	C875.225342,384.696991 854.160095,384.696991 832.809692,384.696991 
	C832.809692,373.946381 832.809692,363.666992 832.809692,353.272217 
	C768.787354,353.272217 705.061951,353.272217 640.864136,353.272217 
	C640.864136,363.938232 640.864136,374.341705 640.864136,385.201538 
	C629.995178,385.201538 619.591492,385.201538 609.367554,385.201538 
	C609.367554,428.069122 609.367554,470.463013 609.367554,513.149902 
	C620.012939,513.149902 630.293274,513.149902 641.037964,513.149902 
	C641.037964,534.505127 641.037964,555.570740 641.037964,577.101685 
	C651.903015,577.101685 662.306396,577.101685 673.167358,577.101685 
	C673.167358,587.969788 673.167358,598.373474 673.167358,608.939941 
	C684.117798,608.939941 694.596863,608.939941 705.004761,609.881104 
M321.865051,608.993896 
	C332.137909,608.993896 342.410797,608.993896 353.146667,608.993896 
	C353.146667,598.050293 353.146667,587.646729 353.146667,576.787659 
	C364.016052,576.787659 374.419739,576.787659 385.275940,576.787659 
	C385.275940,555.252136 385.275940,534.186768 385.275940,512.835999 
	C396.026337,512.835999 406.306030,512.835999 416.739624,512.835999 
	C416.739624,470.146515 416.739624,427.753387 416.739624,384.887878 
	C406.086151,384.887878 395.682617,384.887878 384.822144,384.887878 
	C384.822144,374.019653 384.822144,363.616577 384.822144,353.353088 
	C309.957123,353.353088 235.565384,353.353088 160.702332,353.353088 
	C160.702332,364.104980 160.702332,374.508636 160.702332,385.186554 
	C149.950821,385.186554 139.671265,385.186554 128.925720,385.186554 
	C128.925720,395.874939 128.925720,406.278503 128.925720,417.139954 
	C118.058365,417.139954 107.654900,417.139954 97.337601,417.139954 
	C97.337601,449.341492 97.337601,481.069061 97.337601,513.266602 
	C108.073029,513.266602 118.476639,513.266602 129.155487,513.266602 
	C129.155487,524.017639 129.155487,534.297302 129.155487,545.042358 
	C150.510788,545.042358 171.576416,545.042358 193.107208,545.042358 
	C193.107208,555.907959 193.107208,566.310974 193.107208,577.169189 
	C235.973297,577.169189 278.368774,577.169189 321.059174,577.169189 
	C321.059174,588.116943 321.059174,598.596008 320.118225,609.004700 
	C299.188477,609.004700 278.258728,609.004700 257.297943,609.004700 
	C257.297943,619.939392 257.297943,630.332458 257.297943,640.680176 
	C278.655579,640.680176 299.711792,640.680176 320.919220,640.680176 
	C320.919220,629.884705 320.919220,619.409790 321.865051,608.993896 
M576.999756,664.449768 
	C576.999756,635.371704 576.999756,606.293640 576.999756,576.751587 
	C565.944397,576.751587 555.545227,576.751587 544.698303,576.751587 
	C544.698303,555.224670 544.698303,534.164307 544.698303,513.230530 
	C523.294861,513.230530 502.356262,513.230530 480.955994,513.230530 
	C480.955994,534.515076 480.955994,555.575378 480.955994,577.097290 
	C470.101013,577.097290 459.700562,577.097290 449.302673,577.097290 
	C449.302673,609.286743 449.302673,641.006348 449.302673,672.682495 
	C491.988800,672.682495 534.371765,672.682495 576.999756,672.682495 
	C576.999756,670.055176 576.999756,667.743164 576.999756,664.449768 
z"/>
<path fill="#000000" opacity="1.000000" stroke="none" 
	d="
M321.059174,609.075073 
	C321.059174,598.596008 321.059174,588.116943 321.059174,577.169189 
	C278.368774,577.169189 235.973297,577.169189 193.107208,577.169189 
	C193.107208,566.310974 193.107208,555.907959 193.107208,545.042358 
	C171.576416,545.042358 150.510788,545.042358 129.155487,545.042358 
	C129.155487,534.297302 129.155487,524.017639 129.155487,513.266602 
	C118.476639,513.266602 108.073029,513.266602 97.337601,513.266602 
	C97.337601,481.069061 97.337601,449.341492 97.337601,417.139954 
	C107.654900,417.139954 118.058365,417.139954 128.925720,417.139954 
	C128.925720,406.278503 128.925720,395.874939 128.925720,385.186554 
	C139.671265,385.186554 149.950821,385.186554 160.702332,385.186554 
	C160.702332,374.508636 160.702332,364.104980 160.702332,353.353088 
	C235.565384,353.353088 309.957123,353.353088 384.822144,353.353088 
	C384.822144,363.616577 384.822144,374.019653 384.822144,384.887878 
	C395.682617,384.887878 406.086151,384.887878 416.739624,384.887878 
	C416.739624,427.753387 416.739624,470.146515 416.739624,512.835999 
	C406.306030,512.835999 396.026337,512.835999 385.275940,512.835999 
	C385.275940,534.186768 385.275940,555.252136 385.275940,576.787659 
	C374.419739,576.787659 364.016052,576.787659 353.146667,576.787659 
	C353.146667,587.646729 353.146667,598.050293 353.146667,608.993896 
	C342.410797,608.993896 332.137909,608.993896 321.426086,609.000488 
	C320.987122,609.007080 321.059174,609.075073 321.059174,609.075073 
M261.641022,513.000244 
	C281.367706,513.000244 301.094391,513.000244 320.650818,513.000244 
	C320.650818,491.262268 320.650818,470.218933 320.650818,449.352081 
	C299.256409,449.352081 278.212982,449.352081 257.000397,449.352081 
	C257.000397,469.832550 257.065765,489.961456 256.932648,510.089050 
	C256.911774,513.246338 258.577972,513.130676 261.641022,513.000244 
z"/>
<path fill="#000000" opacity="1.000000" stroke="none" 
	d="
M705.075867,608.939941 
	C694.596863,608.939941 684.117798,608.939941 673.167358,608.939941 
	C673.167358,598.373474 673.167358,587.969788 673.167358,577.101685 
	C662.306396,577.101685 651.903015,577.101685 641.037964,577.101685 
	C641.037964,555.570740 641.037964,534.505127 641.037964,513.149902 
	C630.293274,513.149902 620.012939,513.149902 609.367554,513.149902 
	C609.367554,470.463013 609.367554,428.069122 609.367554,385.201538 
	C619.591492,385.201538 629.995178,385.201538 640.864136,385.201538 
	C640.864136,374.341705 640.864136,363.938232 640.864136,353.272217 
	C705.061951,353.272217 768.787354,353.272217 832.809692,353.272217 
	C832.809692,363.666992 832.809692,373.946381 832.809692,384.696991 
	C854.160095,384.696991 875.225342,384.696991 896.760864,384.696991 
	C896.760864,395.552856 896.760864,405.956451 896.760864,416.826691 
	C907.619019,416.826691 918.022827,416.826691 928.709106,416.826691 
	C928.709106,449.025391 928.709106,480.752563 928.709106,512.953369 
	C918.248474,512.953369 907.845337,512.953369 897.157593,512.953369 
	C897.157593,523.698975 897.157593,533.979187 897.157593,544.729248 
	C875.807007,544.729248 854.741333,544.729248 833.205933,544.729248 
	C833.205933,555.585571 833.205933,565.989319 833.205933,576.856079 
	C790.342102,576.856079 747.946655,576.856079 704.993958,576.856079 
	C704.993958,587.589233 704.993958,597.861694 705.000916,608.573120 
	C705.007874,609.011963 705.075867,608.939941 705.075867,608.939941 
M704.999817,495.498657 
	C704.999817,501.254700 704.999817,507.010773 704.999817,512.684937 
	C726.672852,512.684937 747.713623,512.684937 768.684937,512.684937 
	C768.684937,491.327332 768.684937,470.286591 768.684937,449.314941 
	C747.327454,449.314941 726.286682,449.314941 704.999817,449.314941 
	C704.999817,464.585663 704.999817,479.542511 704.999817,495.498657 
z"/>
<path fill="#010101" opacity="1.000000" stroke="none" 
	d="
M673.077942,864.933655 
	C673.077942,875.409302 673.077942,885.885010 673.077942,896.680542 
	C577.062500,896.680542 481.360443,896.680542 385.188568,896.680542 
	C385.188568,886.397888 385.188568,875.997070 385.188568,865.138672 
	C363.667145,865.138672 342.606750,865.138672 321.004639,865.138672 
	C321.004639,854.414185 321.004639,844.145020 321.003296,833.437927 
	C321.001953,833.000061 320.930939,833.069092 321.402954,833.036682 
	C342.805695,833.004272 363.736389,833.004272 384.699982,833.004272 
	C384.699982,811.395691 384.699982,790.339844 384.699982,768.821777 
	C363.345642,768.821777 342.285370,768.821777 321.069061,768.821777 
	C321.069061,757.882568 321.069061,747.406738 321.034607,736.966431 
	C321.000122,737.001892 320.932281,737.073975 320.932281,737.073975 
	C338.085480,737.048706 355.238647,737.002197 372.391846,737.001648 
	C493.635925,736.997314 614.880005,737.002502 736.561890,737.003418 
	C736.999756,737.002075 736.930908,736.930908 736.963318,737.402954 
	C736.995728,758.867554 736.995728,779.860046 736.995728,801.069092 
	C748.175171,801.069092 758.622131,801.069092 769.033447,801.034790 
	C768.997864,801.000427 768.925720,800.932556 768.925720,800.932556 
	C768.925720,811.406860 768.925720,821.881226 768.925720,832.821899 
	C758.386841,832.821899 747.987122,832.821899 737.127563,832.821899 
	C737.127563,843.673035 737.127563,854.072632 737.127563,865.008606 
	C715.736511,865.008606 694.808411,865.008606 673.436401,864.568665 
	C672.992371,853.862732 672.992371,843.596802 672.992371,832.875610 
	C683.925598,832.875610 694.322449,832.875610 704.689575,832.875610 
	C704.689575,811.360657 704.689575,790.311523 704.689575,769.325623 
	C683.329956,769.325623 662.280640,769.325623 641.330994,769.325623 
	C641.330994,801.359802 641.330994,833.069153 641.330994,864.933655 
	C652.132019,864.933655 662.604980,864.933655 673.077942,864.933655 
M608.998169,848.497986 
	C608.998169,822.093018 608.998169,795.688110 608.998169,769.299683 
	C576.696106,769.299683 544.990601,769.299683 513.299744,769.299683 
	C513.299744,801.304016 513.299744,833.009460 513.299744,864.700195 
	C545.304077,864.700195 577.009583,864.700195 608.998169,864.700195 
	C608.998169,859.436523 608.998169,854.466431 608.998169,848.497986 
M474.414795,864.998169 
	C476.514587,864.998169 478.614410,864.998169 480.710388,864.998169 
	C480.710388,832.709106 480.710388,801.007385 480.710388,769.297607 
	C459.377045,769.297607 438.332794,769.297607 417.292236,769.297607 
	C417.292236,801.296143 417.292236,832.997925 417.292236,864.998169 
	C436.197571,864.998169 454.814178,864.998169 474.414795,864.998169 
z"/>
<path fill="#000000" opacity="1.000000" stroke="none" 
	d="
M576.999756,664.940430 
	C576.999756,667.743164 576.999756,670.055176 576.999756,672.682495 
	C534.371765,672.682495 491.988800,672.682495 449.302673,672.682495 
	C449.302673,641.006348 449.302673,609.286743 449.302673,577.097290 
	C459.700562,577.097290 470.101013,577.097290 480.955994,577.097290 
	C480.955994,555.575378 480.955994,534.515076 480.955994,513.230530 
	C502.356262,513.230530 523.294861,513.230530 544.698303,513.230530 
	C544.698303,534.164307 544.698303,555.224670 544.698303,576.751587 
	C555.545227,576.751587 565.944397,576.751587 576.999756,576.751587 
	C576.999756,606.293640 576.999756,635.371704 576.999756,664.940430 
z"/>
<path fill="#010101" opacity="1.000000" stroke="none" 
	d="
M737.033691,737.038086 
	C737.067566,726.594910 737.067566,716.115662 737.067566,705.164429 
	C758.296387,705.164429 779.362549,705.164429 800.897583,705.164429 
	C800.897583,683.633301 800.897583,662.567139 800.897583,641.252258 
	C811.765320,641.252258 822.160889,641.252258 832.854248,641.252258 
	C832.854248,651.708191 832.854248,661.988098 832.854248,672.740173 
	C843.536255,672.740173 853.938599,672.740173 864.810181,672.740173 
	C864.810181,683.598877 864.810181,694.002991 864.810181,704.872925 
	C875.671265,704.872925 886.074890,704.872925 896.735596,704.872925 
	C896.735596,715.740234 896.735596,726.135925 896.735596,736.829590 
	C875.648499,736.829590 854.702942,736.829590 833.284790,736.829590 
	C833.284790,747.508728 833.284790,757.912720 833.284790,768.785156 
	C822.426758,768.785156 812.022827,768.785156 801.152100,768.785156 
	C801.152100,779.645264 801.152100,790.049133 801.152100,800.995911 
	C790.415833,800.995911 780.143372,800.995911 769.398315,800.964233 
	C768.925720,800.932556 768.997864,801.000427 769.001099,800.562683 
	C769.004272,779.132446 769.004272,758.139893 769.004272,736.930908 
	C757.824829,736.930908 747.377869,736.930908 736.930908,736.930908 
	C736.930908,736.930908 736.999756,737.002075 737.033691,737.038086 
z"/>
<path fill="#010101" opacity="1.000000" stroke="none" 
	d="
M225.067581,768.925903 
	C214.591583,768.925903 204.115601,768.925903 193.170837,768.925903 
	C193.170837,758.379395 193.170837,747.978638 193.170837,737.119568 
	C171.648193,737.119568 150.587006,737.119568 129.264496,737.119568 
	C129.264496,726.262573 129.264496,715.869263 129.264496,705.183105 
	C150.338272,705.183105 171.278168,705.183105 192.684143,705.183105 
	C192.684143,683.843140 192.684143,662.783630 192.684143,641.362183 
	C203.535110,641.362183 213.931091,641.362183 224.800201,641.362183 
	C224.800201,651.590088 224.800201,661.991516 224.800201,672.855469 
	C235.654572,672.855469 246.055710,672.855469 256.995361,672.855469 
	C256.995361,683.585205 256.995361,693.854736 256.996704,704.562134 
	C256.998047,705.000000 257.069061,704.930908 256.597046,704.963318 
	C245.885498,704.995728 235.645966,704.995728 224.930923,704.995728 
	C224.930923,726.669739 224.930923,747.869446 224.965347,769.033569 
	C224.999771,768.997986 225.067581,768.925903 225.067581,768.925903 
z"/>
<path fill="#010101" opacity="1.000000" stroke="none" 
	d="
M321.038025,832.966125 
	C299.935394,832.932190 278.796753,832.932190 257.189941,832.932190 
	C257.189941,822.398987 257.189941,811.998779 257.189941,801.137329 
	C246.337448,801.137329 235.937332,801.137329 225.004135,801.137329 
	C225.004135,790.409180 225.004135,780.140076 225.035858,769.398438 
	C225.067581,768.925903 224.999771,768.997986 225.437408,769.001099 
	C236.114578,769.004272 246.354080,769.004272 257.069061,769.004272 
	C257.069061,747.330200 257.069061,726.130554 257.069061,704.930908 
	C257.069061,704.930908 256.998047,705.000000 256.961975,705.033936 
	C278.128906,705.067810 299.331879,705.067810 320.995880,705.067810 
	C320.995880,715.646118 320.995880,725.887512 320.964081,736.601440 
	C320.932281,737.073975 321.000122,737.001892 320.562500,736.998779 
	C309.857361,736.995728 299.589813,736.995728 289.299103,736.995728 
	C289.299103,758.607483 289.299103,779.660828 289.299103,801.179199 
	C299.988251,801.179199 310.387970,801.179199 320.930939,801.179199 
	C320.930939,812.120056 320.930939,822.594543 320.930939,833.069092 
	C320.930939,833.069092 321.001953,833.000061 321.038025,832.966125 
z"/>
<path fill="#010101" opacity="1.000000" stroke="none" 
	d="
M704.971802,609.045898 
	C726.073547,609.079895 747.211304,609.079895 768.675171,609.079895 
	C768.675171,619.611938 768.675171,630.005798 768.675171,640.702332 
	C747.666626,640.702332 726.610779,640.702332 705.004761,640.702332 
	C705.004761,630.417664 705.004761,620.149353 705.040283,609.410522 
	C705.075867,608.939941 705.007874,609.011963 704.971802,609.045898 
z"/>
<path fill="#010101" opacity="1.000000" stroke="none" 
	d="
M320.953186,608.970947 
	C320.919220,619.409790 320.919220,629.884705 320.919220,640.680176 
	C299.711792,640.680176 278.655579,640.680176 257.297943,640.680176 
	C257.297943,630.332458 257.297943,619.939392 257.297943,609.004700 
	C278.258728,609.004700 299.188477,609.004700 320.588684,609.039917 
	C321.059174,609.075073 320.987122,609.007080 320.953186,608.970947 
z"/>
<path fill="#FFFFFF" opacity="1.000000" stroke="none" 
	d="
M261.157837,513.000244 
	C258.577972,513.130676 256.911774,513.246338 256.932648,510.089050 
	C257.065765,489.961456 257.000397,469.832550 257.000397,449.352081 
	C278.212982,449.352081 299.256409,449.352081 320.650818,449.352081 
	C320.650818,470.218933 320.650818,491.262268 320.650818,513.000244 
	C301.094391,513.000244 281.367706,513.000244 261.157837,513.000244 
z"/>
<path fill="#FFFFFF" opacity="1.000000" stroke="none" 
	d="
M704.999817,494.998993 
	C704.999817,479.542511 704.999817,464.585663 704.999817,449.314941 
	C726.286682,449.314941 747.327454,449.314941 768.684937,449.314941 
	C768.684937,470.286591 768.684937,491.327332 768.684937,512.684937 
	C747.713623,512.684937 726.672852,512.684937 704.999817,512.684937 
	C704.999817,507.010773 704.999817,501.254700 704.999817,494.998993 
z"/>
<path fill="#FFFFFF" opacity="1.000000" stroke="none" 
	d="
M608.998169,848.997192 
	C608.998169,854.466431 608.998169,859.436523 608.998169,864.700195 
	C577.009583,864.700195 545.304077,864.700195 513.299744,864.700195 
	C513.299744,833.009460 513.299744,801.304016 513.299744,769.299683 
	C544.990601,769.299683 576.696106,769.299683 608.998169,769.299683 
	C608.998169,795.688110 608.998169,822.093018 608.998169,848.997192 
z"/>
<path fill="#FFFFFF" opacity="1.000000" stroke="none" 
	d="
M321.402954,833.036682 
	C320.930939,822.594543 320.930939,812.120056 320.930939,801.179199 
	C310.387970,801.179199 299.988251,801.179199 289.299103,801.179199 
	C289.299103,779.660828 289.299103,758.607483 289.299103,736.995728 
	C299.589813,736.995728 309.857361,736.995728 320.596985,736.963318 
	C321.069061,747.406738 321.069061,757.882568 321.069061,768.821777 
	C342.285370,768.821777 363.345642,768.821777 384.699982,768.821777 
	C384.699982,790.339844 384.699982,811.395691 384.699982,833.004272 
	C363.736389,833.004272 342.805695,833.004272 321.402954,833.036682 
z"/>
<path fill="#FFFFFF" opacity="1.000000" stroke="none" 
	d="
M473.922791,864.998169 
	C454.814178,864.998169 436.197571,864.998169 417.292236,864.998169 
	C417.292236,832.997925 417.292236,801.296143 417.292236,769.297607 
	C438.332794,769.297607 459.377045,769.297607 480.710388,769.297607 
	C480.710388,801.007385 480.710388,832.709106 480.710388,864.998169 
	C478.614410,864.998169 476.514587,864.998169 473.922791,864.998169 
z"/>
<path fill="#FFFFFF" opacity="1.000000" stroke="none" 
	d="
M673.041626,864.967651 
	C662.604980,864.933655 652.132019,864.933655 641.330994,864.933655 
	C641.330994,833.069153 641.330994,801.359802 641.330994,769.325623 
	C662.280640,769.325623 683.329956,769.325623 704.689575,769.325623 
	C704.689575,790.311523 704.689575,811.360657 704.689575,832.875610 
	C694.322449,832.875610 683.925598,832.875610 672.992371,832.875610 
	C672.992371,843.596802 672.992371,853.862732 672.964783,864.601440 
	C672.937195,865.074219 673.005249,865.001587 673.041626,864.967651 
z"/>
<path fill="#FFFFFF" opacity="1.000000" stroke="none" 
	d="
M736.963318,737.402954 
	C747.377869,736.930908 757.824829,736.930908 769.004272,736.930908 
	C769.004272,758.139893 769.004272,779.132446 769.036682,800.597046 
	C758.622131,801.069092 748.175171,801.069092 736.995728,801.069092 
	C736.995728,779.860046 736.995728,758.867554 736.963318,737.402954 
z"/>
<path fill="#FFFFFF" opacity="1.000000" stroke="none" 
	d="
M256.597046,704.963318 
	C257.069061,726.130554 257.069061,747.330200 257.069061,769.004272 
	C246.354080,769.004272 236.114578,769.004272 225.402985,769.036682 
	C224.930923,747.869446 224.930923,726.669739 224.930923,704.995728 
	C235.645966,704.995728 245.885498,704.995728 256.597046,704.963318 
z"/>
</svg>